<svg width="18" height="18" viewBox="0 0 18 18" fill="none" xmlns="http://www.w3.org/2000/svg">
<path d="M16.5 13.75C17.0523 13.75 17.5 13.3023 17.5 12.75C17.5 12.1977 17.0523 11.75 16.5 11.75V13.75ZM1.5 11.75C0.947715 11.75 0.5 12.1977 0.5 12.75C0.5 13.3023 0.947715 13.75 1.5 13.75V11.75ZM10.2975 15.75L11.1625 16.2518C11.342 15.9424 11.3425 15.5608 11.164 15.2509C10.9855 14.941 10.6551 14.75 10.2975 14.75V15.75ZM7.7025 15.75V14.75C7.34487 14.75 7.01446 14.941 6.83597 15.2509C6.65747 15.5608 6.65805 15.9424 6.8375 16.2518L7.7025 15.75ZM16.5 11.75H1.5V13.75H16.5V11.75ZM1.5 13.75C3.29493 13.75 4.75 12.2949 4.75 10.5H2.75C2.75 11.1904 2.19036 11.75 1.5 11.75V13.75ZM4.75 10.5V6.75H2.75V10.5H4.75ZM4.75 6.75C4.75 4.40279 6.65279 2.5 9 2.5V0.5C5.54822 0.5 2.75 3.29822 2.75 6.75H4.75ZM9 2.5C11.3472 2.5 13.25 4.40279 13.25 6.75H15.25C15.25 3.29822 12.4518 0.5 9 0.5V2.5ZM13.25 6.75V10.5H15.25V6.75H13.25ZM13.25 10.5C13.25 12.2949 14.7051 13.75 16.5 13.75V11.75C15.8096 11.75 15.25 11.1904 15.25 10.5H13.25ZM9.4325 15.2482C9.34305 15.4024 9.17827 15.4973 9 15.4973V17.4973C9.89134 17.4973 10.7153 17.0228 11.1625 16.2518L9.4325 15.2482ZM9 15.4973C8.82174 15.4973 8.65695 15.4024 8.5675 15.2482L6.8375 16.2518C7.28475 17.0228 8.10867 17.4973 9 17.4973V15.4973ZM7.7025 16.75H10.2975V14.75H7.7025V16.75Z" fill="white"/>
</svg>
