<svg width="27" height="29" viewBox="0 0 27 29" fill="none" xmlns="http://www.w3.org/2000/svg">
<circle cx="17.5629" cy="9.37122" r="4" transform="rotate(-129.289 17.5629 9.37122)" fill="url(#paint0_linear)"/>
<circle opacity="0.4" cx="17.5" cy="9.5" r="9.5" fill="white"/>
<path d="M16.5 24.75C17.0523 24.75 17.5 24.3023 17.5 23.75C17.5 23.1977 17.0523 22.75 16.5 22.75V24.75ZM1.5 22.75C0.947715 22.75 0.5 23.1977 0.5 23.75C0.5 24.3023 0.947715 24.75 1.5 24.75V22.75ZM10.2975 26.75L11.1625 27.2518C11.342 26.9424 11.3425 26.5608 11.164 26.2509C10.9855 25.941 10.6551 25.75 10.2975 25.75V26.75ZM7.7025 26.75V25.75C7.34487 25.75 7.01446 25.941 6.83597 26.2509C6.65747 26.5608 6.65805 26.9424 6.8375 27.2518L7.7025 26.75ZM16.5 22.75H1.5V24.75H16.5V22.75ZM1.5 24.75C3.29493 24.75 4.75 23.2949 4.75 21.5H2.75C2.75 22.1904 2.19036 22.75 1.5 22.75V24.75ZM4.75 21.5V17.75H2.75V21.5H4.75ZM4.75 17.75C4.75 15.4028 6.65279 13.5 9 13.5V11.5C5.54822 11.5 2.75 14.2982 2.75 17.75H4.75ZM9 13.5C11.3472 13.5 13.25 15.4028 13.25 17.75H15.25C15.25 14.2982 12.4518 11.5 9 11.5V13.5ZM13.25 17.75V21.5H15.25V17.75H13.25ZM13.25 21.5C13.25 23.2949 14.7051 24.75 16.5 24.75V22.75C15.8096 22.75 15.25 22.1904 15.25 21.5H13.25ZM9.4325 26.2482C9.34305 26.4024 9.17827 26.4973 9 26.4973V28.4973C9.89134 28.4973 10.7153 28.0228 11.1625 27.2518L9.4325 26.2482ZM9 26.4973C8.82174 26.4973 8.65695 26.4024 8.5675 26.2482L6.8375 27.2518C7.28475 28.0228 8.10867 28.4973 9 28.4973V26.4973ZM7.7025 27.75H10.2975V25.75H7.7025V27.75Z" fill="white"/>
<defs>
<linearGradient id="paint0_linear" x1="13.5629" y1="5.37122" x2="21.5629" y2="5.37122" gradientUnits="userSpaceOnUse">
<stop stop-color="#FF5370"/>
<stop offset="1" stop-color="#FF869A"/>
</linearGradient>
</defs>
</svg>
